<?xml version="1.0" encoding="UTF-8" standalone="no"?>
<svg width="24px" height="24px" viewBox="0 0 24 24" version="1.1" xmlns="http://www.w3.org/2000/svg" xmlns:xlink="http://www.w3.org/1999/xlink" xmlns:sketch="http://www.bohemiancoding.com/sketch/ns">
    <!-- Generator: Sketch 3.3 (11970) - http://www.bohemiancoding.com/sketch -->
    <title>search</title>
    <desc>Created with Sketch.</desc>
    <defs></defs>
    <g id="Page-1" stroke="none" stroke-width="1" fill="none" fill-rule="evenodd" sketch:type="MSPage">
        <path d="M14,17 C15.933343,17 17.5833265,16.3166735 18.95,14.95 C20.3166735,13.5833265 21,11.933343 21,10 C21,8.066657 20.3166735,6.4166735 18.95,5.05 C17.5833265,3.6833265 15.933343,3 14,3 C12.066657,3 10.4166735,3.6833265 9.05,5.05 C7.6833265,6.4166735 7,8.066657 7,10 C7,11.933343 7.6833265,13.5833265 9.05,14.95 C10.4166735,16.3166735 12.066657,17 14,17 L14,17 Z M14,0 C16.7666805,0 19.1249902,0.97499025 21.075,2.925 C23.0250097,4.87500975 24,7.2333195 24,10 C24,12.7666805 23.0250097,15.1249902 21.075,17.075 C19.1249902,19.0250097 16.7666805,20 14,20 C12.533326,20 11.1500065,19.700003 9.85,19.1 L3.825,23.525 C3.291664,23.925002 2.70000325,24.0750005 2.05,23.975 C1.39999675,23.8749995 0.875002,23.558336 0.475,23.025 C0.15833175,22.5916645 0,22.1125026 0,21.5875 C0,21.0624974 0.15833175,20.5833355 0.475,20.15 L4.9,14.15 C4.299997,12.8499935 4,11.466674 4,10 C4,7.2333195 4.97499025,4.87500975 6.925,2.925 C8.87500975,0.97499025 11.2333195,0 14,0 L14,0 Z" id="search" fill="#545454" sketch:type="MSShapeGroup"></path>
    </g>
</svg>