<svg xmlns="http://www.w3.org/2000/svg" xmlns:xlink="http://www.w3.org/1999/xlink" width="137" height="770" viewBox="0 0 137 770"><svg width="17" height="16" viewBox="0 0 17 16" id="check" y="0"><title>check</title><desc>Created with Sketch.</desc><path d="M16.156 2.356c.15.125.23.29.244.497.013.206-.044.397-.17.572-4.736 6.763-7.3 10.412-7.686 10.95-.4.538-.916.81-1.547.816-.63.007-1.153-.265-1.566-.815L.22 7.045c-.126-.176-.183-.37-.17-.582.013-.213.094-.382.244-.507.637-.55 1.35-1.043 2.137-1.48.164-.09.345-.1.545-.038.2.062.362.18.487.356l3.525 4.95 6.02-8.55c.124-.175.284-.29.477-.347.194-.056.378-.04.553.047.826.45 1.532.937 2.12 1.462z" fill="#353535"/></svg>
<svg width="28" height="28" viewBox="0 0 28 28" id="checkbox-checked" y="16"><title>Rectangle 1 + check 2</title><desc>Created with Sketch.</desc><g transform="translate(2 2)" fill="none"><rect stroke="#353535" stroke-width="2" fill="#fff" width="24" height="24" rx="2"/><path d="M20.156 6.356c.15.125.23.29.244.497.013.206-.044.397-.17.572-4.736 6.763-7.3 10.412-7.686 10.95-.4.538-.916.81-1.547.816-.63.007-1.153-.265-1.566-.815l-5.21-7.33c-.126-.176-.183-.37-.17-.582.013-.213.094-.382.244-.507.637-.55 1.35-1.043 2.137-1.48.164-.09.345-.1.545-.04.2.064.362.183.488.358l3.525 4.95 6.018-8.55c.125-.175.285-.29.478-.347.194-.056.378-.04.553.047.826.45 1.532.937 2.12 1.462z" fill="#353535"/></g></svg>
<svg width="48" height="42" viewBox="0 0 48 42" id="checkbox-checked--green" y="44"><title>Slice 1</title><desc>Created with Sketch.</desc><g transform="translate(1 1)" fill="none"><rect stroke="#55832A" stroke-width="2" fill="#fff" width="46" height="40" rx="3"/><path d="M32.516 12.916c.175.145.27.34.284.58.015.24-.05.462-.197.666-5.527 7.89-8.517 12.148-8.97 12.775-.465.628-1.067.945-1.803.952-.737.006-1.346-.31-1.827-.953l-6.08-8.553c-.147-.204-.213-.43-.198-.678.015-.248.11-.445.284-.59.743-.642 1.574-1.218 2.493-1.73.19-.1.4-.115.634-.042.234.073.423.21.57.415l4.112 5.774 7.02-9.975c.146-.205.332-.34.558-.405.226-.066.442-.048.646.054.962.524 1.786 1.093 2.472 1.706z" fill="#55832A"/></g></svg>
<svg width="28" height="28" viewBox="0 0 28 28" id="checkbox-empty" y="86"><title>Rectangle 1</title><desc>Created with Sketch.</desc><rect stroke="#353535" stroke-width="2" fill="#fff" x="2" y="2" width="24" height="24" rx="2"/></svg>
<svg width="14" height="14" viewBox="0 0 14 14" id="close" y="114"><title>close</title><desc>Created with Sketch.</desc><path d="M9.775 7l3.544 3.563c.16.15.255.328.28.534.025.206-.025.378-.15.516-.538.687-1.15 1.3-1.837 1.837-.138.125-.31.175-.516.15-.206-.025-.39-.112-.553-.262L7 9.774l-3.563 3.563c-.15.15-.328.237-.534.262-.206.025-.384-.025-.534-.15-.676-.538-1.282-1.144-1.82-1.82-.125-.15-.175-.327-.15-.533.025-.206.112-.384.262-.534L4.226 7 .68 3.456C.52 3.294.426 3.11.4 2.903c-.025-.206.025-.378.15-.515C1.075 1.712 1.68 1.1 2.37.55c.15-.125.327-.175.533-.15.206.025.384.12.534.28L7 4.076 10.544.68c.162-.16.347-.255.553-.28.206-.025.378.025.516.15.687.538 1.3 1.15 1.837 1.838.125.137.175.31.15.515-.025.206-.12.39-.28.553L9.774 7z" fill="#fff"/></svg>
<svg width="16" height="16" viewBox="0 0 16 16" id="delete" y="128"><title>delete</title><desc>Created with Sketch.</desc><path d="M10.945 7.707l4.134 4.157c.19.175.298.382.327.623.03.24-.03.44-.175.602-.627.8-1.34 1.515-2.143 2.142-.162.146-.362.204-.603.175-.24-.03-.456-.13-.645-.306l-4.135-4.155L3.55 15.1c-.174.176-.382.278-.622.307-.24.03-.45-.03-.624-.175C1.517 14.605.81 13.898.182 13.11c-.146-.175-.204-.382-.175-.623.03-.24.132-.448.307-.623L4.47 7.707.335 3.573c-.19-.19-.3-.405-.328-.645-.03-.24.03-.442.175-.602C.795 1.54 1.502.824 2.304.182c.175-.146.383-.204.624-.175.24.03.448.14.623.328l4.157 3.96 4.135-3.96c.19-.19.404-.3.645-.328.24-.03.44.03.602.175.8.627 1.515 1.342 2.142 2.144.146.16.204.36.175.602-.03.24-.138.455-.328.645l-4.135 4.134z" fill="#fff"/></svg>
<svg width="12" height="8" viewBox="0 0 12 8" id="down-arrow--dark" y="144"><title>Slice 1</title><desc>Created with Sketch.</desc><path d="M.954 1.885c-.126-.223-.126-.442 0-.656.107-.215.292-.33.554-.35.01-.01.222-.025.635-.045.413-.02.99-.04 1.728-.065C4.61.745 5.32.733 6 .733c.68 0 1.39.012 2.13.037.738.024 1.314.046 1.727.065.413.02.625.034.635.044.243.02.427.135.554.35.126.213.126.432 0 .655-.515.914-1.16 1.862-1.932 2.844-.773.98-1.37 1.696-1.794 2.143-.423.447-.707.734-.853.86-.136.117-.292.175-.467.175-.175 0-.33-.058-.467-.175-.146-.126-.43-.413-.853-.86S3.66 5.71 2.886 4.73C2.114 3.746 1.47 2.8.954 1.884z" fill="#353535"/></svg>
<svg width="13" height="12" viewBox="0 0 13 12" id="external-link" y="152"><title>compose</title><desc>Created with Sketch.</desc><path d="M10.918 6.17v4.477c0 .192-.06.352-.183.48-.12.128-.28.208-.476.24-1.562.248-3.162.372-4.8.372-1.648 0-3.248-.125-4.8-.373-.197-.032-.356-.112-.478-.24C.062 11 0 10.84 0 10.647V2.14c0-.193.063-.363.188-.51.126-.15.283-.24.47-.27C2.236 1.11 4.192.986 5.69.986c.05 0 .12.02.206.052l.622.634c-.3.422-.587.835-.86 1.237H5.52c-1.232 0-2.153.036-3.596.22v6.478c1.263.176 2.162.264 3.535.264 1.37 0 2.27-.088 3.533-.264V6.2c.373-.263.752-.54 1.14-.832l.785.802zM12.2 1.197c.013.326-.005.895-.055 1.706-.05.812-.15 1.54-.3 2.188-.03.144-.12.237-.265.28-.02.01-.055.015-.1.015-.105 0-.194-.037-.266-.112l-1.077-1.097c-.452.34-.886.727-1.302 1.003-.416.274-1.382 1.065-1.486 1.092-.38.117-.72.02-1.022-.286-.302-.308-.395-.655-.28-1.042.025-.1.8-1.164 1.07-1.588.27-.424.65-.79.984-1.256L7.026 1.002c-.104-.1-.135-.225-.094-.374.032-.143.123-.233.273-.27C8.21.118 9.363 0 10.668 0c.686 0 1.068.013 1.146.04.094.005.172.04.234.107.062.066.1.147.11.243.015.212.03.48.042.807z" fill="#fff"/></svg>
<svg width="13" height="12" viewBox="0 0 13 12" id="external-link--dark" y="164"><title>compose</title><desc>Created with Sketch.</desc><path d="M10.918 6.17v4.477c0 .192-.06.352-.183.48-.12.128-.28.208-.476.24-1.562.248-3.162.372-4.8.372-1.648 0-3.248-.125-4.8-.373-.197-.032-.356-.112-.478-.24C.062 11 0 10.84 0 10.647V2.14c0-.193.063-.363.188-.51.126-.15.283-.24.47-.27C2.236 1.11 4.192.986 5.69.986c.05 0 .12.02.206.052l.622.634c-.3.422-.587.835-.86 1.237H5.52c-1.232 0-2.153.036-3.596.22v6.478c1.263.176 2.162.264 3.535.264 1.37 0 2.27-.088 3.533-.264V6.2c.373-.263.752-.54 1.14-.832l.785.802zM12.2 1.197c.013.326-.005.895-.055 1.706-.05.812-.15 1.54-.3 2.188-.03.144-.12.237-.265.28-.02.01-.055.015-.1.015-.105 0-.194-.037-.266-.112l-1.077-1.097c-.452.34-.886.727-1.302 1.003-.416.274-1.382 1.065-1.486 1.092-.38.117-.72.02-1.022-.286-.302-.308-.395-.655-.28-1.042.025-.1.8-1.164 1.07-1.588.27-.424.65-.79.984-1.256L7.026 1.002c-.104-.1-.135-.225-.094-.374.032-.143.123-.233.273-.27C8.21.118 9.363 0 10.668 0c.686 0 1.068.013 1.146.04.094.005.172.04.234.107.062.066.1.147.11.243.015.212.03.48.042.807z" fill="#353535"/></svg>
<svg width="28" height="28" viewBox="0 0 28 28" id="facebook" y="176"><title>Fill 14</title><desc>Created with Sketch.</desc><path d="M26.455 0H1.545C.692 0 0 .692 0 1.545v24.91C0 27.308.692 28 1.545 28h13.41V17.157h-3.648V12.93h3.65V9.816c0-3.617 2.208-5.586 5.434-5.586 1.546 0 2.874.114 3.26.165v3.78h-2.236c-1.755 0-2.095.835-2.095 2.058v2.698h4.184l-.545 4.227h-3.64V28h7.135c.853 0 1.545-.692 1.545-1.545V1.545C28 .692 27.308 0 26.455 0" fill="#fff"/></svg>
<svg width="16" height="16" viewBox="0 0 16 16" id="info" y="204"><title>info</title><desc>Created with Sketch.</desc><path d="M8 0c1.444 0 2.78.358 4.008 1.075 1.228.717 2.2 1.69 2.917 2.917C15.642 5.22 16 6.556 16 8s-.358 2.78-1.075 4.008c-.717 1.228-1.69 2.2-2.917 2.917C10.78 15.642 9.444 16 8 16s-2.78-.358-4.008-1.075c-1.228-.717-2.2-1.69-2.917-2.917C.358 10.78 0 9.444 0 8s.358-2.78 1.075-4.008c.717-1.228 1.69-2.2 2.917-2.917C5.22.358 6.556 0 8 0zm0 4.95c.322 0 .606-.12.85-.358.244-.24.367-.52.367-.842 0-.322-.123-.608-.367-.858s-.528-.375-.85-.375c-.322 0-.606.125-.85.375s-.367.536-.367.858c0 .322.123.603.367.842.244.24.528.358.85.358zM6.833 12.8h2.334c.155 0 .283-.05.383-.15.1-.1.15-.228.15-.383v-.534c0-.155-.05-.283-.15-.383-.1-.1-.228-.15-.383-.15l.016-4.267c0-.144-.052-.27-.158-.375-.106-.105-.23-.158-.375-.158H6.833c-.155 0-.283.05-.383.15-.1.1-.15.228-.15.383v.534c0 .155.05.283.15.383.1.1.228.15.383.15v3.2c-.155 0-.283.05-.383.15-.1.1-.15.228-.15.383v.534c0 .155.05.283.15.383.1.1.228.15.383.15z" fill="#353535"/></svg>
<svg width="33" height="33" viewBox="0 0 33 33" id="info--green" y="220"><title>info</title><desc>Created with Sketch.</desc><path d="M16.5 0c2.98 0 5.735.74 8.267 2.217C27.3 3.695 29.305 5.7 30.783 8.233 32.26 10.765 33 13.52 33 16.5c0 2.98-.74 5.735-2.217 8.267-1.478 2.532-3.484 4.538-6.016 6.016C22.235 32.26 19.48 33 16.5 33c-2.98 0-5.735-.74-8.267-2.217C5.7 29.305 3.695 27.3 2.217 24.767.74 22.235 0 19.48 0 16.5c0-2.98.74-5.735 2.217-8.267C3.695 5.7 5.7 3.695 8.233 2.217 10.765.74 13.52 0 16.5 0zm0 10.21c.665 0 1.25-.247 1.753-.74.504-.492.756-1.07.756-1.736 0-.664-.253-1.254-.757-1.77S17.165 5.19 16.5 5.19c-.665 0-1.25.258-1.753.774-.504.516-.756 1.106-.756 1.77 0 .665.253 1.244.757 1.736.504.493 1.088.74 1.753.74zM14.094 26.4h4.812c.32 0 .585-.103.79-.31.207-.206.31-.47.31-.79v-1.1c0-.32-.103-.584-.31-.79-.205-.207-.47-.31-.79-.31l.035-8.8c0-.298-.108-.556-.326-.773-.218-.218-.475-.327-.773-.327h-3.746c-.32 0-.585.103-.79.31-.207.206-.31.47-.31.79v1.1c0 .32.103.584.31.79.205.207.47.31.79.31v6.6c-.32 0-.585.103-.79.31-.207.206-.31.47-.31.79v1.1c0 .32.103.584.31.79.205.207.47.31.79.31z" fill="#55832A"/></svg>
<svg width="16" height="16" viewBox="0 0 16 16" id="info--grey" y="253"><title>info</title><desc>Created with Sketch.</desc><path d="M8 0c1.444 0 2.78.358 4.008 1.075 1.228.717 2.2 1.69 2.917 2.917C15.642 5.22 16 6.556 16 8s-.358 2.78-1.075 4.008c-.717 1.228-1.69 2.2-2.917 2.917C10.78 15.642 9.444 16 8 16s-2.78-.358-4.008-1.075c-1.228-.717-2.2-1.69-2.917-2.917C.358 10.78 0 9.444 0 8s.358-2.78 1.075-4.008c.717-1.228 1.69-2.2 2.917-2.917C5.22.358 6.556 0 8 0zm0 4.95c.322 0 .606-.12.85-.358.244-.24.367-.52.367-.842 0-.322-.123-.608-.367-.858s-.528-.375-.85-.375c-.322 0-.606.125-.85.375s-.367.536-.367.858c0 .322.123.603.367.842.244.24.528.358.85.358zM6.833 12.8h2.334c.155 0 .283-.05.383-.15.1-.1.15-.228.15-.383v-.534c0-.155-.05-.283-.15-.383-.1-.1-.228-.15-.383-.15l.016-4.267c0-.144-.052-.27-.158-.375-.106-.105-.23-.158-.375-.158H6.833c-.155 0-.283.05-.383.15-.1.1-.15.228-.15.383v.534c0 .155.05.283.15.383.1.1.228.15.383.15v3.2c-.155 0-.283.05-.383.15-.1.1-.15.228-.15.383v.534c0 .155.05.283.15.383.1.1.228.15.383.15z" fill="#999"/></svg>
<svg width="16" height="16" viewBox="0 0 16 16" id="info--white" y="269"><title>info</title><desc>Created with Sketch.</desc><path d="M8 0c1.444 0 2.78.358 4.008 1.075 1.228.717 2.2 1.69 2.917 2.917C15.642 5.22 16 6.556 16 8s-.358 2.78-1.075 4.008c-.717 1.228-1.69 2.2-2.917 2.917C10.78 15.642 9.444 16 8 16s-2.78-.358-4.008-1.075c-1.228-.717-2.2-1.69-2.917-2.917C.358 10.78 0 9.444 0 8s.358-2.78 1.075-4.008c.717-1.228 1.69-2.2 2.917-2.917C5.22.358 6.556 0 8 0zm0 4.95c.322 0 .606-.12.85-.358.244-.24.367-.52.367-.842 0-.322-.123-.608-.367-.858s-.528-.375-.85-.375c-.322 0-.606.125-.85.375s-.367.536-.367.858c0 .322.123.603.367.842.244.24.528.358.85.358zM6.833 12.8h2.334c.155 0 .283-.05.383-.15.1-.1.15-.228.15-.383v-.534c0-.155-.05-.283-.15-.383-.1-.1-.228-.15-.383-.15l.016-4.267c0-.144-.052-.27-.158-.375-.106-.105-.23-.158-.375-.158H6.833c-.155 0-.283.05-.383.15-.1.1-.15.228-.15.383v.534c0 .155.05.283.15.383.1.1.228.15.383.15v3.2c-.155 0-.283.05-.383.15-.1.1-.15.228-.15.383v.534c0 .155.05.283.15.383.1.1.228.15.383.15z" fill="#fff"/></svg>
<svg width="8" height="11" viewBox="0 0 8 11" id="left-arrow--dark" y="285"><title>right-arrow--dark</title><desc>Created with Sketch.</desc><path d="M6.05.158c.225-.126.443-.126.657 0 .214.107.33.292.35.554.01.01.025.22.044.635.02.413.042.99.067 1.728.024.74.036 1.448.036 2.13 0 .68-.012 1.39-.036 2.128-.025.74-.046 1.315-.066 1.728-.018.414-.033.626-.043.636-.02.243-.136.427-.35.554-.214.126-.432.126-.656 0-.913-.516-1.86-1.16-2.843-1.933-.982-.773-1.696-1.37-2.143-1.793C.616 6.1.33 5.816.204 5.67c-.118-.136-.176-.29-.176-.466 0-.175.058-.33.175-.467.127-.146.413-.43.86-.853.448-.423 1.162-1.02 2.144-1.794C4.19 1.317 5.137.673 6.05.158z" fill="#353535"/></svg>
<svg width="137" height="36" viewBox="0 0 137 36" id="logo" y="296"><title>logo</title><desc>Created with Sketch.</desc><g fill="none"><g><path d="M20.346 33.902c-2.032-2-4.02-4.052-5.913-6.186-.875-.986-1.16-.677-2.207.012 0 0-2.883 2.35-6.19 5.03-2.73 2.212-3.59 2.728-4.582 2.728 0 0-.73.01-.955-.292-.24-.282-.335-1.202 1.614-3.59 2.923-3.585 2.09-2.463 5.176-6.003 3.975-4.556 2.396-2.623 6.26-7.28.713-.86 1.135-.908 1.85-.035 2.983 3.634 6.05 7.197 9.008 10.852.89 1.098 1.834 2.303 2.28 3.62 0 .33.12.618-.244 1.235-2.02 2.148-3.97 2.003-6.098-.09z" id="aqImported-Layers" fill="#E6E6E6"/><path d="M7.227 10.827c2.032 2 4.02 4.052 5.913 6.186.875.986 1.35.79 2.207-.013 4.958-4.65 9.93-9.285 15.006-13.8C32.913.898 34.29.116 35.14.116c0 0 .63-.007.857.294.237.28-.317 1.195-.78 1.713C32.085 5.625 28.815 9 25.727 12.54c-3.975 4.556-7.84 9.212-11.703 13.868-.714.86-1.136.908-1.852.035-2.983-3.634-6.05-7.197-9.007-10.85-.89-1.1-1.834-2.304-2.28-3.622 0-.328-.12-.616.243-1.234 2.02-2.147 3.97-2.002 6.1.09z" fill="#353535"/></g><path d="M77.903 17.792l.173-1.1h2.514l.148.965.058.017c.956-.766 1.945-1.15 2.967-1.15 1 0 1.784.35 2.353 1.05.568.7.853 1.793.853 3.28 0 .61-.055 1.185-.162 1.722-.107.537-.282 1.058-.523 1.56-.242.505-.602.906-1.08 1.206-.478.3-1.05.45-1.714.45-.922 0-1.766-.3-2.53-.9v2.754c0 .14.017.23.05.268.033.04.113.065.24.076l1.656.134v1.1h-4.83v-1.117l.693-.1c.125-.023.205-.055.238-.097s.05-.13.05-.264V18.48c0-.185-.075-.305-.224-.36l-.93-.328zm3.09 5.506c.666.61 1.358.912 2.078.906 1.27 0 1.904-1.077 1.904-3.23 0-1.893-.59-2.838-1.772-2.838-.73 0-1.467.305-2.208.915V23.3zm7.228-2.065c0-1.466.367-2.617 1.098-3.454.73-.838 1.82-1.256 3.27-1.256 1.42 0 2.46.4 3.125 1.2.665.8.997 1.895.997 3.282 0 1.5-.354 2.672-1.063 3.517-.71.845-1.783 1.268-3.222 1.268-1.462 0-2.528-.406-3.198-1.22-.67-.815-1.006-1.927-1.006-3.337zm2.02-.1c0 2.13.744 3.196 2.23 3.193 1.486-.003 2.23-1.073 2.23-3.21 0-1.08-.178-1.867-.532-2.36-.355-.492-.897-.738-1.628-.738-1.533 0-2.3 1.038-2.3 3.114zm7.492 4.448V24.5l.964-.134c.11-.01.183-.04.22-.088.034-.048.052-.133.052-.256v-9.628c0-.196-.074-.316-.222-.36l-.965-.328.175-1.1h2.95V24.02c0 .14.015.23.045.268.03.04.106.065.227.076l.948.117v1.1h-4.393zm5.093 0V24.5l1.014-.134c.11-.01.182-.04.217-.088.036-.048.054-.133.054-.256v-5.54c0-.196-.073-.316-.222-.36l-.93-.328.172-1.1h2.918v7.328c0 .14.015.23.045.268.03.04.106.065.227.076l.997.117v1.1h-4.492zm.775-11.86c0-.402.11-.713.33-.93.22-.22.532-.328.94-.328.395 0 .705.11.93.327.226.217.338.528.338.93 0 .415-.112.732-.338.953-.225.22-.535.332-.93.332-.408 0-.72-.11-.94-.332-.22-.22-.33-.538-.33-.952zm4.41 7.53c0-1.56.407-2.74 1.223-3.534.816-.794 1.902-1.192 3.26-1.192 1.137 0 2.054.204 2.752.613v2.442l-1.4-.068-.2-1.133c-.01-.113-.073-.194-.188-.244-.26-.1-.608-.15-1.047-.15-.71 0-1.283.248-1.723.746-.44.498-.66 1.284-.66 2.358 0 2.076.847 3.114 2.54 3.114.774 0 1.488-.176 2.142-.528l.55 1.334c-.823.515-1.828.775-3.015.78-1.417 0-2.478-.41-3.18-1.23-.704-.82-1.056-1.922-1.056-3.31zm8.142 4.33V24.5l1.013-.134c.11-.01.183-.04.22-.088.034-.048.052-.133.052-.256v-5.54c0-.196-.074-.316-.222-.36l-.932-.328.173-1.1h2.918v7.328c0 .14.015.23.045.268.03.04.105.065.226.076l.997.117v1.1h-4.49zm.774-11.86c0-.402.11-.713.33-.93.22-.22.533-.328.94-.328.395 0 .705.11.93.327.226.217.34.528.34.93 0 .415-.114.732-.34.953-.225.22-.535.332-.93.332-.407 0-.72-.11-.94-.332-.22-.22-.33-.538-.33-.952zm4.41 7.37c0-1.488.37-2.62 1.112-3.4.742-.777 1.698-1.166 2.868-1.166 2.384 0 3.577 1.38 3.577 4.138 0 .342-.017.675-.05 1h-5.447c.044.838.246 1.472.605 1.9.36.428.934.642 1.72.642.71 0 1.535-.2 2.48-.604l.544 1.377c-1.033.537-2.112.808-3.238.814-2.78-.005-4.17-1.572-4.17-4.7zm2.076-.856h3.544c0-1.477-.558-2.216-1.673-2.216-.516 0-.946.184-1.29.55-.343.367-.537.922-.58 1.666zm6.66 4.952v-2.34l1.4.09.165 1.05c.033.13.102.207.206.235.506.163 1.01.245 1.517.245 1.126 0 1.69-.395 1.69-1.184 0-.273-.11-.505-.33-.696-.22-.19-.42-.312-.598-.365-.18-.054-.518-.136-1.018-.248-.126-.034-.214-.056-.264-.067-.313-.068-.57-.133-.774-.198-.204-.064-.436-.162-.697-.293-.262-.132-.468-.282-.62-.45-.15-.167-.28-.386-.386-.654-.107-.27-.16-.58-.16-.932 0-.974.334-1.693 1.005-2.157.67-.464 1.51-.696 2.52-.696 1.105 0 2.05.165 2.835.495v2.324l-1.4-.092-.182-.99c-.01-.112-.074-.193-.19-.244-.362-.112-.766-.17-1.21-.176-1.072 0-1.608.36-1.608 1.083 0 .15.02.284.062.398.04.115.12.22.24.31.117.093.217.168.3.223.082.056.225.118.428.185l.445.135c.094.028.272.07.536.126.335.08.607.15.816.215.21.065.457.168.746.31.288.144.513.302.675.475.163.174.303.406.42.697.12.29.178.627.178 1.007 0 .95-.334 1.654-1.004 2.107-.67.454-1.528.68-2.572.68-.665 0-1.314-.068-1.95-.205-.633-.137-1.04-.27-1.223-.4z" fill="#353535"/><path d="M28.983 16.737c.625 0 1.19.106 1.692.318.504.212.93.512 1.283.902.352.39.622.86.81 1.414.19.554.283 1.17.283 1.853 0 .688-.093 1.307-.282 1.857-.188.55-.458 1.02-.81 1.41-.352.39-.78.688-1.283.898-.503.21-1.067.313-1.692.313-.624 0-1.188-.103-1.692-.312-.502-.21-.93-.51-1.286-.9-.354-.388-.627-.858-.818-1.408-.192-.55-.287-1.17-.287-1.857 0-.682.094-1.3.286-1.852.19-.552.464-1.023.818-1.413.355-.39.784-.69 1.287-.902.505-.212 1.07-.318 1.693-.318zm0 7.77c.844 0 1.474-.288 1.89-.864.417-.576.625-1.38.625-2.41 0-1.038-.208-1.846-.624-2.425-.417-.58-1.047-.868-1.89-.868-.428 0-.8.074-1.115.223-.316.15-.58.364-.79.645-.21.28-.368.626-.472 1.036-.105.41-.157.872-.157 1.388 0 .516.053.977.158 1.384.104.406.26.75.472 1.027.21.278.474.49.79.64.314.15.686.224 1.113.224zm8.515 1.21c-.675 0-1.194-.19-1.557-.574-.362-.384-.543-.937-.543-1.66v-5.328h-1.03c-.09 0-.166-.027-.227-.082-.062-.054-.093-.14-.093-.253v-.61l1.4-.18.347-2.69c.01-.087.047-.158.11-.212.06-.054.14-.082.236-.082h.76v3h2.446v1.11H36.9v5.225c0 .367.086.64.26.817.175.178.4.267.676.267.157 0 .294-.022.41-.065.115-.044.214-.09.3-.143.083-.05.155-.1.214-.142.06-.042.11-.064.156-.064.08 0 .15.05.21.147l.44.73c-.26.247-.57.44-.937.58-.367.14-.743.21-1.132.21zm7.09-8.98c.51 0 .984.087 1.417.262.433.174.807.426 1.122.755.315.33.562.736.74 1.22.176.485.265 1.036.265 1.655 0 .24-.026.4-.076.482-.05.08-.147.12-.287.12h-5.69c.012.55.085 1.028.22 1.435.135.407.32.747.557 1.02.236.27.518.474.844.61.327.134.693.2 1.098.2.377 0 .702-.043.975-.132.273-.09.508-.185.705-.288.197-.103.36-.2.493-.288.134-.09.247-.134.343-.134.124 0 .22.048.287.146l.422.558c-.186.23-.408.43-.667.598-.26.17-.536.308-.83.417-.296.11-.602.19-.917.245-.315.054-.627.08-.936.08-.59 0-1.135-.1-1.633-.304-.5-.203-.93-.5-1.293-.894-.362-.392-.645-.878-.848-1.457-.203-.578-.305-1.243-.305-1.994 0-.606.092-1.173.275-1.7.183-.528.446-.985.79-1.37.342-.388.76-.692 1.256-.912.495-.22 1.052-.33 1.67-.33zm.033 1.126c-.725 0-1.296.213-1.712.64-.417.427-.675 1.018-.777 1.775h4.65c0-.355-.046-.68-.142-.976-.096-.295-.236-.55-.422-.765-.186-.215-.412-.38-.68-.498-.267-.12-.572-.177-.915-.177zm9.022 7.718v-7.4l-.945-.11c-.118-.03-.215-.074-.29-.134-.077-.06-.115-.148-.115-.263v-.627h1.35v-.842c0-.5.07-.94.207-1.328.137-.387.334-.714.59-.98.256-.267.564-.468.924-.606.36-.138.765-.206 1.215-.206.382 0 .736.057 1.063.172l-.034.765c-.007.115-.055.184-.145.207-.09.023-.216.034-.38.034h-.26c-.26 0-.495.036-.706.104-.212.07-.393.18-.545.336-.152.154-.27.358-.35.61-.082.252-.123.564-.123.937v.8h2.473v1.108h-2.422v7.426h-1.51zm8.81-8.843c.625 0 1.19.106 1.693.318.504.212.93.512 1.283.902.35.39.62.86.81 1.414.188.554.283 1.17.283 1.853 0 .688-.094 1.307-.282 1.857-.19.55-.46 1.02-.81 1.41-.352.39-.78.688-1.283.898-.503.21-1.068.313-1.692.313-.625 0-1.19-.103-1.692-.312-.503-.21-.932-.51-1.286-.9-.354-.388-.627-.858-.82-1.408-.19-.55-.286-1.17-.286-1.857 0-.682.096-1.3.287-1.852.192-.552.465-1.023.82-1.413.353-.39.782-.69 1.286-.902.504-.212 1.068-.318 1.693-.318zm0 7.77c.845 0 1.475-.288 1.89-.864.418-.576.626-1.38.626-2.41 0-1.038-.208-1.846-.625-2.425-.416-.58-1.046-.868-1.89-.868-.428 0-.8.074-1.114.223-.316.15-.58.364-.79.645-.21.28-.37.626-.473 1.036-.104.41-.156.872-.156 1.388 0 .516.053.977.157 1.384.104.406.262.75.473 1.027.21.278.474.49.79.64.314.15.685.224 1.113.224zm5.925 1.074v-8.706h.86c.164 0 .277.032.34.095.06.062.103.17.125.325l.102 1.358c.292-.607.654-1.08 1.084-1.422.43-.34.935-.51 1.515-.51.236 0 .45.027.64.08.192.056.37.13.533.23l-.194 1.142c-.04.143-.127.215-.262.215-.08 0-.2-.027-.363-.082-.163-.054-.39-.08-.683-.08-.524 0-.96.153-1.313.463-.35.31-.644.76-.88 1.35v5.543h-1.503z" fill="#353535"/></g></svg>
<svg width="137" height="35" viewBox="0 0 137 35" id="logo--white" y="332"><title>logo--white</title><desc>Created with Sketch.</desc><g transform="translate(-1)" fill="#fff"><g><path d="M7.926 10.628c2.043 1.962 4.04 3.978 5.944 6.073.88.97 1.358.776 2.22-.012 4.983-4.563 9.98-9.114 15.084-13.546 2.574-2.26 3.958-3.03 4.813-3.03 0 0 .634-.006.86.29.24.277-.32 1.174-.784 1.682-3.148 3.437-6.436 6.75-9.54 10.225-3.995 4.472-7.88 9.043-11.764 13.613-.72.846-1.143.892-1.863.036-2.998-3.57-6.08-7.067-9.054-10.654-.894-1.08-1.844-2.26-2.292-3.554 0-.324-.12-.606.246-1.213 2.03-2.11 3.99-1.966 6.13.088z" id="apImported-Layers"/><path d="M21.114 33.28c-2.043-1.962-4.04-3.978-5.944-6.072-.88-.968-1.165-.665-2.22.012 0 0-2.897 2.306-6.22 4.937-2.745 2.172-3.61 2.678-4.607 2.678 0 0-.734.01-.96-.286-.24-.278-.336-1.18 1.623-3.527 2.938-3.518 2.1-2.416 5.204-5.89 3.995-4.475 2.408-2.578 6.29-7.148.72-.846 1.143-.892 1.863-.035 2.998 3.567 6.08 7.065 9.055 10.652.893 1.08 1.843 2.26 2.29 3.555 0 .323.123.606-.243 1.212-2.032 2.107-3.992 1.965-6.13-.09z" fill-opacity=".12"/></g><path d="M29.704 16.068c.628 0 1.193.104 1.697.312.504.208.934.503 1.29.886.356.382.63.845.82 1.388.188.543.283 1.15.283 1.818 0 .675-.095 1.283-.284 1.823-.19.54-.464 1-.82 1.383-.356.383-.786.677-1.29.882-.503.205-1.068.308-1.696.308-.634 0-1.203-.103-1.71-.308-.506-.205-.937-.5-1.293-.882-.356-.382-.628-.843-.818-1.383-.19-.54-.284-1.148-.284-1.823 0-.67.095-1.275.284-1.818.19-.543.462-1.006.82-1.388.355-.383.786-.678 1.292-.886.507-.208 1.076-.312 1.71-.312zm0 7.627c.848 0 1.482-.282 1.9-.848.42-.565.628-1.354.628-2.366 0-1.018-.21-1.81-.628-2.38-.418-.567-1.052-.85-1.9-.85-.43 0-.805.072-1.124.218-.32.147-.586.358-.798.633-.212.277-.37.616-.475 1.018-.104.402-.157.856-.157 1.363 0 1.013.21 1.802.632 2.367.422.566 1.062.848 1.922.848zm8.484 1.19c-.68 0-1.2-.188-1.566-.565-.364-.377-.547-.92-.547-1.63v-5.23H35.04c-.09 0-.167-.027-.23-.08-.06-.054-.092-.137-.092-.25v-.598l1.408-.177.348-2.64c.017-.086.055-.155.114-.208.06-.053.138-.08.234-.08h.763v2.945h2.486v1.088h-2.485v5.13c0 .36.088.627.263.802.176.174.402.26.68.26.157 0 .294-.02.41-.062.116-.042.217-.09.302-.14.084-.05.156-.096.216-.14.06-.04.112-.062.157-.062.08 0 .15.048.212.144l.44.717c-.26.24-.573.43-.94.568-.368.138-.747.207-1.137.207zm6.965-8.817c.514 0 .99.086 1.43.257.437.172.816.42 1.136.743.318.323.57.722.75 1.198.18.475.27 1.016.27 1.624 0 .236-.024.394-.075.473-.05.078-.147.118-.29.118h-5.742c.01.54.085 1.01.22 1.41.136.4.323.732.56 1 .238.267.52.466.85.6.327.13.694.197 1.102.197.38 0 .705-.044.98-.13.274-.088.51-.182.708-.284.198-.1.363-.195.496-.282.132-.086.247-.13.343-.13.124 0 .22.048.288.143l.425.55c-.186.224-.41.42-.67.585-.26.166-.54.303-.835.41-.297.106-.604.187-.92.24-.318.053-.632.08-.943.08-.593 0-1.14-.1-1.64-.3-.502-.2-.934-.492-1.3-.877-.364-.384-.648-.86-.852-1.43-.203-.567-.305-1.22-.305-1.957 0-.596.092-1.153.276-1.67.183-.518.448-.966.793-1.346.344-.38.765-.678 1.263-.894.498-.217 1.057-.325 1.68-.325zm.034 1.105c-.73 0-1.304.21-1.723.63-.418.418-.678 1-.78 1.74h4.7c0-.348-.05-.667-.15-.957-.098-.29-.242-.54-.43-.75-.19-.21-.42-.375-.693-.49-.27-.115-.578-.173-.923-.173zm10.307 7.577v-7.265l-.95-.11c-.12-.028-.216-.07-.293-.13-.075-.06-.113-.145-.113-.258v-.615h1.357v-.827c0-.49.07-.924.208-1.304.14-.38.336-.7.594-.96.257-.262.567-.46.93-.596.36-.135.768-.202 1.22-.202.385 0 .738.056 1.06.17l-.033.75c-.01.135-.086.208-.225.22-.138.01-.324.016-.556.016-.26 0-.496.034-.708.1-.212.07-.394.178-.547.33-.153.152-.27.352-.352.6-.082.247-.123.553-.123.92v.784h2.477v1.088h-2.427v7.29h-1.52zm8.738-8.682c.628 0 1.194.104 1.697.312.502.208.932.503 1.288.886.357.382.63.845.82 1.388.19.543.283 1.15.283 1.818 0 .675-.093 1.283-.283 1.823-.19.54-.462 1-.82 1.383-.355.383-.785.677-1.288.882-.504.205-1.07.308-1.698.308-.633 0-1.203-.103-1.71-.308-.505-.205-.937-.5-1.293-.882-.357-.382-.63-.843-.82-1.383-.19-.54-.284-1.148-.284-1.823 0-.67.095-1.275.284-1.818.19-.543.463-1.006.82-1.388.355-.383.787-.678 1.293-.886.506-.208 1.076-.312 1.71-.312zm0 7.627c.85 0 1.482-.282 1.9-.848.42-.565.628-1.354.628-2.366 0-1.018-.21-1.81-.627-2.38-.42-.567-1.052-.85-1.9-.85-.43 0-.805.072-1.125.218-.32.147-.585.358-.797.633-.21.277-.37.616-.474 1.018-.105.402-.157.856-.157 1.363 0 1.013.21 1.802.63 2.367.422.566 1.063.848 1.922.848zm5.998 1.055v-8.547h.865c.164 0 .278.03.34.093.062.062.104.168.127.32l.093 1.3c.272-.585.607-1.042 1.006-1.37.4-.33.884-.495 1.456-.495.18 0 .355.02.52.06.168.04.317.1.447.186l-.11 1.122c-.034.14-.12.21-.255.21-.08 0-.195-.016-.348-.05-.153-.034-.325-.05-.517-.05-.272 0-.515.04-.73.122-.215.08-.406.2-.573.354-.166.155-.315.345-.445.57-.13.225-.25.483-.356.776v5.4h-1.52z"/><path d="M78.538 17.104l.174-1.08h2.527l.148.948.058.016c.96-.752 1.955-1.13 2.982-1.13 1.006 0 1.794.345 2.366 1.03.57.688.857 1.762.857 3.223 0 .6-.053 1.163-.16 1.69-.108.528-.283 1.038-.526 1.533-.243.494-.605.888-1.086 1.182-.48.294-1.055.44-1.723.44-.928 0-1.776-.293-2.543-.88v2.702c0 .137.016.225.05.264.032.04.113.064.24.075l1.665.132v1.08h-4.855V27.23l.696-.1c.127-.02.207-.052.24-.093.033-.042.05-.128.05-.26V17.78c0-.182-.075-.3-.224-.355l-.936-.32zm3.107 5.405c.668.598 1.364.894 2.088.89 1.275 0 1.913-1.06 1.913-3.174 0-1.856-.593-2.785-1.78-2.785-.735 0-1.476.3-2.22.9v4.17zm7.266-2.028c0-1.44.368-2.57 1.102-3.39.735-.822 1.83-1.233 3.29-1.233 1.424 0 2.47.392 3.14 1.178.668.785 1.002 1.86 1.002 3.22 0 1.474-.356 2.624-1.07 3.454-.71.83-1.79 1.244-3.238 1.244-1.47 0-2.54-.4-3.215-1.2-.673-.798-1.01-1.89-1.01-3.274zm2.03-.1c0 2.094.747 3.14 2.24 3.136 1.495-.003 2.242-1.053 2.242-3.152 0-1.06-.178-1.832-.534-2.315-.356-.482-.902-.724-1.636-.724-1.54 0-2.312 1.02-2.312 3.057zm7.53 4.368v-1.063l.97-.132c.11-.01.184-.04.22-.086.036-.048.054-.132.054-.253v-9.45c0-.193-.075-.31-.224-.355l-.97-.32.175-1.08h2.966v11.205c0 .138.016.226.046.264.03.04.107.064.228.075l.953.116v1.08H98.47zm5.12 0v-1.063l1.02-.132c.11-.01.184-.04.22-.086.036-.048.054-.132.054-.253V17.78c0-.193-.075-.31-.224-.355l-.936-.32.174-1.08h2.932v7.192c0 .138.016.226.046.264.03.04.106.064.228.075l1.002.116v1.08h-4.515zm.78-11.643c0-.395.11-.7.33-.914.222-.215.537-.322.946-.322.397 0 .71.108.936.323.226.214.34.52.34.914 0 .407-.114.718-.34.935-.227.217-.54.326-.936.326-.41 0-.724-.11-.945-.326-.22-.217-.33-.528-.33-.935zm4.432 7.39c0-1.53.41-2.688 1.23-3.468.82-.78 1.913-1.17 3.277-1.17 1.142 0 2.065.2 2.766.6v2.4l-1.408-.067-.2-1.113c-.01-.11-.074-.19-.19-.24-.26-.098-.61-.147-1.052-.147-.712 0-1.29.244-1.73.733-.443.49-.664 1.26-.664 2.316 0 2.038.85 3.057 2.552 3.057.78 0 1.497-.174 2.154-.52l.555 1.31c-.83.505-1.84.76-3.032.766-1.424 0-2.49-.402-3.197-1.207-.707-.806-1.06-1.89-1.06-3.252zm8.186 4.253v-1.063l1.02-.132c.11-.01.182-.04.218-.086.036-.048.054-.132.054-.253V17.78c0-.193-.075-.31-.224-.355l-.936-.32.174-1.08h2.933v7.192c0 .138.015.226.046.264.03.04.106.064.227.075l1.003.116v1.08h-4.515zm.778-11.643c0-.395.11-.7.332-.914.22-.215.536-.322.944-.322.398 0 .71.108.936.323.227.214.34.52.34.914 0 .407-.113.718-.34.935-.226.217-.538.326-.936.326-.408 0-.723-.11-.944-.326-.22-.217-.332-.528-.332-.935zm4.433 7.235c0-1.46.372-2.574 1.117-3.337.746-.764 1.707-1.146 2.883-1.146 2.397 0 3.596 1.353 3.596 4.062 0 .335-.017.66-.05.98h-5.476c.044.824.247 1.446.61 1.866.36.42.936.63 1.726.63.713 0 1.544-.197 2.494-.593l.547 1.352c-1.04.527-2.124.794-3.256.8-2.794-.006-4.19-1.545-4.19-4.615zm2.086-.84h3.563c0-1.45-.562-2.176-1.683-2.176-.52 0-.95.18-1.296.54-.345.36-.54.905-.584 1.635zm6.695 4.86v-2.298l1.41.09.165 1.03c.033.127.102.204.207.23.508.16 1.016.24 1.524.24 1.132 0 1.7-.387 1.7-1.162 0-.27-.112-.497-.333-.684-.22-.186-.42-.306-.6-.358-.18-.052-.52-.133-1.024-.243-.128-.033-.216-.055-.266-.066-.315-.065-.574-.13-.778-.193-.205-.063-.438-.16-.7-.288-.263-.13-.47-.277-.622-.442-.152-.165-.282-.38-.39-.643-.107-.263-.16-.568-.16-.914 0-.955.336-1.66 1.01-2.117.674-.456 1.52-.684 2.535-.684 1.11 0 2.06.16 2.85.485v2.283l-1.41-.09-.182-.973c-.01-.11-.074-.19-.19-.24-.365-.11-.77-.167-1.218-.172-1.077 0-1.616.354-1.616 1.063 0 .148.02.28.063.39.04.114.12.216.24.306s.22.164.302.218c.082.055.226.116.43.182l.447.132c.094.027.274.068.54.123.336.077.61.147.82.21.21.063.46.165.75.305.29.14.515.295.678.466.163.17.304.398.423.684.118.285.178.615.178.988 0 .934-.337 1.624-1.01 2.07-.675.444-1.536.666-2.586.666-.668 0-1.32-.067-1.96-.202-.637-.134-1.047-.265-1.23-.39z"/></g></svg>
<svg width="21" height="20" viewBox="0 0 21 20" id="nav-burger" y="367"><title>Rectangle 87</title><desc>Created with Sketch.</desc><path d="M0 0h21v4H0V0zm0 16h21v4H0v-4zm0-8h21v4H0V8z" fill="#fff"/></svg>
<svg width="21" height="20" viewBox="0 0 21 20" id="nav-burger--dark" y="387"><title>Rectangle-87</title><desc>Created with Sketch.</desc><path d="M21 0v4H0V0h21zM0 16h21v4H0v-4zm0-8h21v4H0V8z" fill="#353535"/></svg>
<svg width="33" height="30" viewBox="0 0 33 30" id="openbook" y="407"><title>openbook</title><desc>Created with Sketch.</desc><path d="M17.6 3.403c.78-1.375 1.73-2.286 2.853-2.733C21.576.223 23.157 0 25.197 0H27.5v20.9h-2.166c-3.185 0-5.763.573-7.734 1.72V3.402zM5.5 20.9V0h2.338c2.04 0 3.615.223 4.726.67 1.112.447 2.057 1.358 2.836 2.733V22.62c-1.97-1.147-4.537-1.72-7.7-1.72H5.5zM31.866 2.2c.298 0 .56.115.79.344.23.23.344.492.344.79v23.032c0 .298-.115.56-.344.79-.23.23-.492.344-.79.344H20.453c-.367.665-.905 1.197-1.616 1.598-.71.4-1.49.602-2.337.602-.848 0-1.627-.2-2.338-.602-.71-.4-1.248-.933-1.615-1.598H1.134c-.298 0-.56-.115-.79-.344-.23-.23-.344-.492-.344-.79V3.334c0-.298.115-.56.344-.79.23-.23.492-.344.79-.344H3.3V22c0 .32.103.584.31.79.206.207.47.31.79.31h3.3c3.78 0 6.44.836 7.975 2.51.23.23.504.343.825.343.32 0 .596-.114.825-.344 1.535-1.674 4.194-2.51 7.975-2.51h3.334c.298 0 .55-.11.757-.327.207-.217.31-.475.31-.773V2.2h2.166z" fill="#55832A"/></svg>
<svg width="16" height="16" viewBox="0 0 16 16" id="paperplane" y="437"><title>send</title><desc>Created with Sketch.</desc><path d="M15.05.233c.3.21.44.506.417.884-.323 4.855-.884 9.15-1.684 12.883-.09.356-.283.6-.583.733-.144.078-.3.117-.467.117-.144 0-.305-.04-.483-.117l-3.483-1.766-1.55 2.466c-.2.378-.506.567-.917.567-.056 0-.15-.01-.283-.033-.456-.11-.684-.46-.684-1.05V11.6l5.334-6.117-7.184 4.667-2.9-1.283C.25 8.69.056 8.41 0 8.033c-.033-.377.094-.694.383-.95 1.123-.91 2.36-1.775 3.71-2.59 1.35-.818 2.55-1.476 3.6-1.976 1.05-.5 2.104-.953 3.165-1.36 1.06-.404 1.81-.676 2.242-.815.433-.14.76-.236.983-.292.356-.11.678-.05.967.183z" fill="#fff"/></svg>
<svg width="9" height="12" viewBox="0 0 9 12" id="right-arrow" y="453"><title>directright</title><desc>Created with Sketch.</desc><path d="M.553 11.713c-.246-.123-.38-.336-.402-.638l-.016-.167c0-.1-.005-.24-.017-.42-.01-.178-.022-.388-.033-.628-.01-.24-.02-.517-.025-.83-.007-.313-.015-.632-.026-.956-.012-.324-.02-.676-.026-1.056C.003 6.638 0 6.268 0 5.91s.003-.726.008-1.106c.006-.38.014-.732.026-1.056.01-.324.02-.643.025-.956.004-.313.013-.59.024-.83.01-.24.022-.45.033-.63.012-.178.017-.318.017-.418L.15.746C.174.466.308.254.554.11c.257-.146.51-.146.755 0C2.37.7 3.463 1.44 4.586 2.33c1.124.89 1.942 1.577 2.457 2.063.514.487.844.814.99.98.144.158.217.34.217.546 0 .206-.073.382-.218.527-.145.168-.475.495-.99.98-.514.488-1.332 1.175-2.456 2.064-1.123.89-2.216 1.63-3.278 2.223-.246.145-.498.145-.755 0z" fill="#fff"/></svg>
<svg width="8" height="11" viewBox="0 0 8 11" id="right-arrow--dark" y="465"><title>Slice 1</title><desc>Created with Sketch.</desc><path d="M1.95 10.842c-.225.126-.443.126-.657 0-.214-.107-.33-.292-.35-.554-.01-.01-.025-.22-.044-.635-.02-.413-.042-.99-.067-1.728-.024-.74-.036-1.448-.036-2.13 0-.68.012-1.39.036-2.128C.858 2.927.88 2.352.9 1.94c.018-.414.033-.626.043-.636.02-.243.136-.427.35-.554.214-.126.432-.126.656 0 .913.516 1.86 1.16 2.843 1.933.982.773 1.696 1.37 2.143 1.793.448.423.734.708.86.853.118.136.176.29.176.466 0 .175-.058.33-.175.467-.127.146-.413.43-.86.853-.448.423-1.162 1.02-2.144 1.794-.982.773-1.93 1.417-2.844 1.932z" fill="#353535"/></svg>
<svg width="36" height="36" viewBox="0 0 36 36" id="rounded-facebook" y="476"><title>facebook</title><desc>Created with Sketch.</desc><path d="M18 0c2.438 0 4.767.475 6.987 1.424 2.22.95 4.137 2.23 5.748 3.84 1.612 1.612 2.892 3.528 3.84 5.75C35.526 13.233 36 15.56 36 18c0 2.742-.583 5.33-1.75 7.76-1.165 2.432-2.77 4.486-4.815 6.162-2.045 1.676-4.357 2.848-6.935 3.515V21.745h3.85l.65-4.5h-4.5V13.29c0-1.36.656-2.04 1.97-2.04h2.864V7.066c-.89-.2-1.97-.298-3.234-.298-2.11 0-3.72.536-4.834 1.608-1.114 1.072-1.67 2.528-1.67 4.368v4.5H13.5v4.5h4.096V36c-2.403-.047-4.688-.557-6.856-1.53-2.168-.972-4.037-2.258-5.607-3.858-1.57-1.6-2.82-3.498-3.744-5.695C.462 22.72 0 20.414 0 18c0-2.438.475-4.767 1.424-6.987.95-2.22 2.23-4.137 3.84-5.748 1.612-1.612 3.528-2.892 5.75-3.84C13.233.474 15.56 0 18 0z" fill="#3B5998"/></svg>
<svg width="36" height="36" viewBox="0 0 36 36" id="rounded-googleplus" y="512"><title>googleplus</title><desc>Created with Sketch.</desc><path d="M18 0c2.45 0 4.784.475 7.005 1.424 2.22.95 4.134 2.226 5.74 3.832 1.605 1.605 2.882 3.518 3.83 5.74C35.526 13.215 36 15.55 36 18c0 2.45-.475 4.784-1.424 7.005-.95 2.22-2.226 4.134-3.832 5.74-1.605 1.605-3.518 2.882-5.74 3.83C22.785 35.526 20.45 36 18 36h-.703c.527-1.03.79-2.016.79-2.953 0-1.5-.266-2.742-.8-3.727-.532-.984-1.473-1.95-2.82-2.9-.61-.434-1.207-.97-1.793-1.608-.586-.64-.88-1.175-.88-1.61 0-.55.124-1.015.37-1.396.246-.38.773-.888 1.582-1.52.89-.692 1.594-1.498 2.11-2.418.515-.92.773-1.9.773-2.944 0-1.348-.288-2.572-.862-3.674-.575-1.102-1.383-1.852-2.426-2.25h3.234l2.303-1.67H8.63c-1.288 0-2.536.264-3.743.79-1.207.528-2.25 1.237-3.13 2.128 1.477-3.094 3.67-5.575 6.575-7.444C11.238.934 14.462 0 18 0zm9 13.5h4.5v-2.25H27v-4.5h-2.25v4.5h-4.5v2.25h4.5V18H27v-4.5zM9 21.252c-1.313-.047-2.517-.694-3.612-1.942-1.096-1.248-1.755-2.74-1.978-4.474-.223-1.723.047-3.173.81-4.35.76-1.178 1.798-1.744 3.11-1.697 1.336.046 2.552.682 3.648 1.906 1.095 1.225 1.754 2.7 1.977 4.42.223 1.736-.053 3.203-.826 4.405-.775 1.202-1.817 1.78-3.13 1.732zm.334 5.783H7.576c-1.594 0-3.135.293-4.623.88C.983 24.89 0 21.584 0 18c0-.422.012-.744.035-.967.445 1.57 1.34 2.84 2.68 3.806 1.343.966 2.95 1.45 4.826 1.45h.915c-.328.68-.492 1.317-.492 1.915 0 .926.457 1.87 1.37 2.83zm5.96 5.38c.08.315.122.66.122 1.036 0 .88-.152 1.648-.457 2.304-2.204-.375-4.252-1.125-6.145-2.25C6.923 32.38 5.29 30.96 3.92 29.25c1.465-.867 3.047-1.283 4.746-1.248.855 0 1.705.14 2.55.422.163.117.447.31.85.58.406.27.68.457.828.562.146.106.37.27.668.493.298.22.51.403.632.544l.457.518c.183.205.32.413.414.624.094.21.17.434.23.668z" fill="#DD4B39"/></svg>
<svg width="36" height="36" viewBox="0 0 36 36" id="rounded-linkedin" y="548"><title>linkedin</title><desc>Created with Sketch.</desc><path d="M18 0c2.45 0 4.784.475 7.005 1.424 2.22.95 4.134 2.226 5.74 3.832 1.605 1.605 2.882 3.518 3.83 5.74C35.526 13.215 36 15.55 36 18c0 2.45-.475 4.784-1.424 7.005-.95 2.22-2.226 4.134-3.832 5.74-1.605 1.605-3.518 2.882-5.74 3.83C22.785 35.526 20.45 36 18 36c-2.45 0-4.784-.475-7.005-1.424-2.22-.95-4.134-2.226-5.74-3.832-1.605-1.605-2.882-3.518-3.83-5.74C.474 22.785 0 20.45 0 18c0-2.45.475-4.784 1.424-7.005.95-2.22 2.226-4.134 3.832-5.74 1.605-1.605 3.518-2.882 5.74-3.83C13.215.474 15.55 0 18 0zm-7.506 12.006c.902 0 1.63-.252 2.18-.756.55-.504.826-1.13.826-1.88-.023-.763-.305-1.39-.844-1.882-.54-.492-1.26-.738-2.162-.738-.89 0-1.61.246-2.162.738-.55.492-.826 1.12-.826 1.88 0 .75.272 1.378.817 1.882.545.504 1.257.756 2.136.756h.034zM12.744 27V14.256h-4.5V27h4.5zm16.506 0v-6.75c0-2.063-.475-3.703-1.424-4.922-.95-1.22-2.226-1.828-3.832-1.828-.89 0-1.664.243-2.32.73-.656.486-1.13 1.145-1.424 1.977l-.158-1.95h-4.465l.123 2.987V27h4.5v-6.75c0-.926.196-1.658.59-2.197.39-.54.933-.81 1.625-.81.738 0 1.304.23 1.696.687.394.457.59 1.23.59 2.32V27h4.5z" fill="#0976B4"/></svg>
<svg width="36" height="36" viewBox="0 0 36 36" id="rounded-twitter" y="584"><title>twitter</title><desc>Created with Sketch.</desc><path d="M18 0c2.45 0 4.784.475 7.005 1.424 2.22.95 4.134 2.226 5.74 3.832 1.605 1.605 2.882 3.518 3.83 5.74C35.526 13.215 36 15.55 36 18c0 2.45-.475 4.784-1.424 7.005-.95 2.22-2.226 4.134-3.832 5.74-1.605 1.605-3.518 2.882-5.74 3.83C22.785 35.526 20.45 36 18 36c-2.45 0-4.784-.475-7.005-1.424-2.22-.95-4.134-2.226-5.74-3.832-1.605-1.605-2.882-3.518-3.83-5.74C.474 22.785 0 20.45 0 18c0-2.45.475-4.784 1.424-7.005.95-2.22 2.226-4.134 3.832-5.74 1.605-1.605 3.518-2.882 5.74-3.83C13.215.474 15.55 0 18 0zm10.95 14.045c.915-.645 1.765-1.524 2.55-2.637-.95.4-1.934.668-2.953.81 1.078-.634 1.81-1.583 2.197-2.85-.984.587-2.05 1.003-3.2 1.25C26.55 9.537 25.315 9 23.837 9c-1.418 0-2.62.498-3.604 1.494s-1.476 2.21-1.476 3.64c0 .432.04.82.123 1.16-2.1-.107-4.065-.634-5.9-1.583-1.833-.948-3.394-2.214-4.683-3.796-.445.832-.668 1.693-.668 2.584 0 .88.2 1.69.605 2.435.405.744.952 1.35 1.644 1.82-.81 0-1.577-.212-2.304-.634v.052c0 1.23.387 2.314 1.16 3.252.774.937 1.752 1.535 2.936 1.793-.363.105-.81.158-1.336.158-.316 0-.64-.03-.967-.088.316 1.02.91 1.846 1.783 2.48.873.63 1.867.96 2.98.983-2.004 1.56-4.12 2.338-6.346 2.338-.176 0-.574-.03-1.195-.088 2.308 1.5 4.916 2.25 7.822 2.25 1.816 0 3.522-.287 5.115-.86 1.593-.576 2.955-1.346 4.086-2.313 1.13-.967 2.104-2.077 2.918-3.33.815-1.255 1.42-2.564 1.82-3.93.398-1.365.597-2.733.597-4.104v-.668z" fill="#65BBF2"/></svg>
<svg width="16" height="16" viewBox="0 0 16 16" id="rss" y="620"><title>rss</title><desc>Created with Sketch.</desc><path d="M11.1 4.63c1.4 1.426 2.497 3.092 3.29 4.998.794 1.906 1.197 3.897 1.21 5.972h-2.944c0-3.475-1.225-6.456-3.675-8.944C8.207 5.87 7.37 5.2 6.47 4.65c-.9-.55-1.767-.944-2.598-1.18-.83-.24-1.547-.4-2.147-.49C1.125 2.895.55 2.85 0 2.85V0c.563 0 1.122.028 1.678.084C2.234.14 2.925.262 3.75.45s1.62.44 2.38.76c.764.318 1.59.77 2.476 1.36.888.586 1.72 1.274 2.494 2.06zM7.22 8.44c1.986 2.025 2.98 4.412 2.98 7.162H7.313c0-.913-.185-1.83-.554-2.756-.37-.925-.872-1.72-1.51-2.38C3.775 8.95 2.025 8.21 0 8.248V5.4c2.825 0 5.23 1.012 7.22 3.037zM0 10.8c1.4.013 2.55.45 3.45 1.313.9.862 1.35 2.024 1.35 3.487H2.25c-.625 0-1.156-.22-1.594-.656C.22 14.506 0 13.974 0 13.35V10.8z" fill="#353535"/></svg>
<svg width="29" height="33" viewBox="0 0 29 33" id="textfile" y="636"><title>textfile</title><desc>Created with Sketch.</desc><path d="M27.26 1.134c.39.092.71.293.962.602.252.31.378.647.378 1.014V22c0 .985-.7 2.36-2.097 4.125-1.398 1.765-2.985 3.34-4.76 4.727-1.777 1.386-3.158 2.08-4.143 2.08-1.33.045-2.43.068-3.3.068-.825 0-1.65-.01-2.475-.034-.825-.023-1.58-.058-2.27-.104-.686-.045-1.357-.097-2.01-.154-.653-.057-1.25-.115-1.787-.172-.54-.057-1.037-.115-1.495-.172-.46-.057-.866-.12-1.22-.19-.356-.068-.654-.12-.895-.154-.24-.034-.44-.074-.6-.12l-.242-.034C.94 31.774.63 31.58.378 31.28.126 30.984 0 30.64 0 30.25V2.75c0-.367.126-.705.378-1.014.252-.31.562-.51.928-.602l.24-.034c.16-.046.362-.086.602-.12.24-.035.54-.086.894-.155.355-.07.762-.132 1.22-.19.46-.056.957-.114 1.496-.17C6.296.406 6.892.348 7.545.29 8.198.235 8.87.182 9.555.138c.69-.046 1.445-.08 2.27-.104C12.65.01 13.475 0 14.3 0c4.102 0 8.422.378 12.96 1.134zM14.3 29.837c.183 0 .464-.005.842-.017.378-.01.648-.017.808-.017.435 0 .82-.177 1.152-.533.332-.355.498-.762.498-1.22v-4.4c0-.458.16-.848.48-1.17.322-.32.712-.48 1.17-.48h4.4c.458 0 .848-.16 1.17-.48.32-.322.48-.712.48-1.17V4.125c-3.85-.62-7.517-.928-11-.928-3.552 0-7.22.31-11 .928v24.75c3.988.642 7.654.962 11 .962zM6.6 9.9V7.7H22v2.2H6.6zM22 14.3H6.6v-2.2H22v2.2zm0 4.4H6.6v-2.2H22v2.2z" fill="#55832A"/></svg>
<svg width="30" height="24" viewBox="0 0 30 24" id="twitter" y="669"><title>Fill 1</title><desc>Created with Sketch.</desc><path d="M9.435 24C5.96 24 2.725 22.997 0 21.278c.482.056.97.085 1.468.085 2.884 0 5.538-.97 7.644-2.594-2.693-.05-4.966-1.802-5.75-4.21.376.072.762.11 1.16.11.56 0 1.104-.074 1.62-.213-2.816-.556-4.937-3.005-4.937-5.94V8.44c.83.454 1.78.727 2.788.758-1.65-1.086-2.738-2.94-2.738-5.043 0-1.11.304-2.15.833-3.046 3.036 3.665 7.57 6.077 12.687 6.33-.105-.444-.16-.906-.16-1.38C14.615 2.712 17.37 0 20.77 0c1.77 0 3.37.736 4.493 1.913 1.402-.27 2.72-.776 3.908-1.47-.458 1.415-1.434 2.602-2.705 3.352 1.245-.146 2.43-.472 3.535-.954-.825 1.216-1.87 2.283-3.07 3.137.01.26.017.522.017.784 0 8.008-6.19 17.24-17.512 17.24" fill="#fff"/></svg>
<svg width="12" height="8" viewBox="0 0 12 8" id="up-arrow--dark" y="693"><title>directdown</title><desc>Created with Sketch.</desc><path d="M.954 6.85c-.126.222-.126.44 0 .655.107.214.292.33.554.35.01.01.222.024.635.044.413.018.99.04 1.728.064C4.61 7.99 5.32 8 6 8c.68 0 1.39-.01 2.13-.036.738-.024 1.314-.046 1.727-.065.413-.02.625-.035.635-.045.243-.02.427-.136.554-.35.126-.214.126-.433 0-.656-.515-.915-1.16-1.863-1.932-2.845-.773-.982-1.37-1.697-1.794-2.144-.423-.446-.707-.733-.853-.86C6.33.885 6.175.827 6 .827c-.175 0-.33.058-.467.175-.146.127-.43.414-.853.86-.423.448-1.02 1.163-1.794 2.145-.772.982-1.417 1.93-1.932 2.844z" fill="#353535"/></svg>
<svg width="33" height="29" viewBox="0 0 33 29" id="usergroup" y="701"><title>usergroup</title><desc>Created with Sketch.</desc><path d="M32.962 19.387c.07.23.023.47-.137.722-.16.25-.367.39-.62.412l-.24.034c-.16.023-.406.052-.74.086-.33.035-.738.07-1.22.103-.48.035-1.14.063-1.976.086-.837.024-1.748.047-2.733.07-.207-.16-.436-.315-.688-.464l-.81-.48c-.285-.173-.497-.305-.635-.397-.366-.184-.722-.39-1.065-.62 2.406-3.185 2.887-6.347 1.443-9.487-.572-1.237-1.375-2.2-2.406-2.887-1.03-.688-2.154-1.112-3.37-1.272 0-.802.185-1.627.55-2.475.437-.964 1.1-1.674 1.995-2.132C21.206.227 22.134 0 23.097 0c.962 0 1.89.23 2.784.688.895.458 1.56 1.168 1.995 2.13 1.1 2.407.56 4.87-1.616 7.39-.666.78-.62 1.594.137 2.442.23.275.9.733 2.01 1.375 1.112.642 1.897 1.123 2.355 1.444.252.182.476.348.67.497.195.15.36.32.5.516.136.195.245.344.326.447.08.103.16.28.24.532.08.253.132.424.155.516.023.092.074.315.155.67.08.356.13.602.154.74zm-23.134.172c-.138.09-.35.223-.636.395-.287.172-.556.332-.808.48-.252.15-.48.305-.687.465-.71 0-1.387-.01-2.03-.034-.64-.023-1.19-.046-1.65-.07-.457-.022-.87-.045-1.236-.068-.366-.023-.67-.046-.91-.07-.24-.022-.44-.044-.602-.067-.16-.022-.286-.034-.378-.034l-.103-.034c-.252-.023-.458-.16-.62-.413-.16-.207-.205-.447-.136-.723.047-.16.104-.406.173-.74.07-.33.114-.554.137-.67.023-.113.075-.29.155-.532.08-.24.16-.412.24-.515.08-.103.19-.247.327-.43.138-.183.298-.355.48-.516.185-.16.414-.332.69-.515.48-.345 1.27-.838 2.37-1.48 1.1-.64 1.765-1.088 1.995-1.34.756-.848.802-1.66.137-2.44-2.177-2.52-2.716-4.985-1.616-7.39.436-.964 1.1-1.674 1.994-2.132C8.006.227 8.934 0 9.897 0c.962 0 1.89.23 2.784.688.895.458 1.56 1.168 1.995 2.13.366.85.55 1.674.55 2.476-2.75.39-4.687 1.776-5.81 4.16-1.42 3.14-.928 6.3 1.478 9.487-.09.07-.194.138-.31.207-.114.07-.245.143-.394.223-.15.08-.26.144-.328.19h-.034zm6.67 9.04c-.964 0-1.875-.006-2.734-.017-.86-.012-1.587-.03-2.183-.052-.595-.022-1.133-.05-1.615-.085L8.78 28.36c-.31-.024-.568-.046-.774-.07-.206-.022-.355-.034-.447-.034l-.173-.034c-.252-.023-.458-.16-.62-.413-.16-.207-.205-.447-.136-.723.047-.16.104-.406.173-.74.07-.33.114-.554.137-.67.023-.113.075-.29.155-.532.08-.24.16-.412.24-.515.08-.103.19-.247.327-.43.138-.183.298-.355.48-.516.185-.16.414-.332.69-.515.48-.345 1.27-.838 2.37-1.48 1.1-.64 1.765-1.088 1.995-1.34.756-.848.802-1.66.137-2.44-2.177-2.52-2.716-4.985-1.616-7.39.436-.964 1.1-1.674 1.994-2.133.894-.458 1.822-.687 2.785-.687.962 0 1.89.23 2.784.687.895.46 1.56 1.17 1.995 2.132 1.1 2.405.56 4.87-1.616 7.39-.666.78-.62 1.592.137 2.44.23.275.9.733 2.01 1.375 1.112.642 1.897 1.123 2.355 1.444.573.41.997.795 1.272 1.15.275.356.464.745.567 1.17.104.423.225.956.362 1.598.07.252.023.492-.137.72-.16.253-.367.39-.62.414l-.17.034c-.093 0-.242.012-.448.035-.206.024-.464.046-.773.07l-1.203.085c-.492.035-1.036.063-1.632.086-.596.024-1.318.04-2.166.053-.848.01-1.753.017-2.715.017z" fill="#55832A"/></svg>
<svg width="30" height="20" viewBox="0 0 30 20" id="uvd-logo" y="730"><title>uvd_logo2 3</title><desc>Created with Sketch.</desc><g fill="none"><path d="M11.26 10.06h-.253v1.4c0 2.456-1.324 4.64-3.71 4.64-1.635 0-2.05-1.132-2.05-2.805v-6.34c0-1.242-.52-1.81-1.738-1.81H.37V8.06h1.037c.364 0 .572.19.572.594v5.343c0 3.75 1.736 5.235 4.564 5.235 2.284 0 3.944-1.43 4.566-2.86h.052s-.026.297-.026.62v.378c0 .972.597 1.538 1.74 1.538h2.167l-3.057-8.363c-.13-.35-.363-.486-.726-.486z" id="bhShape" fill="#441B4B"/><path d="M23.187 5.145h-.435c-1.063 0-1.608.35-1.945 1.296l-2.49 7.233c-.26.81-.468 1.97-.468 1.97h-.052s-.208-1.16-.494-1.97l-2.49-7.232c-.338-.944-.856-1.295-1.946-1.295h-1.894V8.06h.286c.363 0 .596.135.726.486l3.788 10.362h3.917l3.79-10.362c.128-.35.362-.486.725-.486h.312v-.2c-.84-.39-1.34-1.34-1.34-2.587 0-.045.01-.084.01-.128z" id="bhShape" fill="#E6007E"/><path d="M26.228 2.198c1.18 0 1.574.82 1.574.82h.02s-.02-.158-.02-.358V1.327c0-.158-.08-.23-.222-.23h-.414V.223h.97c.454 0 .645.2.645.672v5.64c0 .156.082.23.224.23h.413v.87h-.938c-.445 0-.627-.21-.627-.565 0-.157.01-.273.01-.273h-.02s-.424.967-1.676.967c-1.383 0-2.25-1.134-2.25-2.783 0-1.69.958-2.782 2.31-2.782zm1.605 2.772c0-.945-.475-1.89-1.454-1.89-.798 0-1.465.693-1.465 1.9 0 1.156.596 1.9 1.444 1.9.756 0 1.473-.555 1.473-1.91z" fill="#373B3A"/></g></svg>
<svg width="30" height="20" viewBox="0 0 30 20" id="uvd-logo-grey" y="750"><title>uvd_logo2 4</title><desc>Created with Sketch.</desc><g fill="#7C7C7C"><path d="M11.26 10.06h-.253v1.4c0 2.456-1.324 4.64-3.71 4.64-1.635 0-2.05-1.132-2.05-2.805v-6.34c0-1.242-.52-1.81-1.738-1.81H.37V8.06h1.037c.364 0 .572.19.572.594v5.343c0 3.75 1.736 5.235 4.564 5.235 2.284 0 3.944-1.43 4.566-2.86h.052s-.026.297-.026.62v.378c0 .972.597 1.538 1.74 1.538h2.167l-3.057-8.363c-.13-.35-.363-.486-.726-.486zM23.187 5.145h-.435c-1.063 0-1.608.35-1.945 1.296l-2.49 7.233c-.26.81-.468 1.97-.468 1.97h-.052s-.208-1.16-.494-1.97l-2.49-7.232c-.338-.944-.856-1.295-1.946-1.295h-1.894V8.06h.286c.363 0 .596.135.726.486l3.788 10.362h3.917l3.79-10.362c.128-.35.362-.486.725-.486h.312v-.2c-.84-.39-1.34-1.34-1.34-2.587 0-.045.01-.084.01-.128zM26.228 2.198c1.18 0 1.574.82 1.574.82h.02s-.02-.158-.02-.358V1.327c0-.158-.08-.23-.222-.23h-.414V.223h.97c.454 0 .645.2.645.672v5.64c0 .156.082.23.224.23h.413v.87h-.938c-.445 0-.627-.21-.627-.565 0-.157.01-.273.01-.273h-.02s-.424.967-1.676.967c-1.383 0-2.25-1.134-2.25-2.783 0-1.69.958-2.782 2.31-2.782zm1.605 2.772c0-.945-.475-1.89-1.454-1.89-.798 0-1.465.693-1.465 1.9 0 1.156.596 1.9 1.444 1.9.756 0 1.473-.555 1.473-1.91z"/></g></svg>
</svg>