<svg width="12" height="8" viewBox="0 0 12 8" xmlns="http://www.w3.org/2000/svg"><title>Slice 1</title><desc>Created with Sketch.</desc><g fill="none" fill-rule="evenodd"><path d="M.954 1.885c-.126-.223-.126-.442 0-.656.107-.215.292-.33.554-.35.01-.01.222-.025.635-.045.413-.02.99-.04 1.728-.065C4.61.745 5.32.733 6 .733c.68 0 1.39.012 2.13.037.738.024 1.314.046 1.727.065.413.02.625.034.635.044.243.02.427.135.554.35.126.213.126.432 0 .655-.515.914-1.16 1.862-1.932 2.844-.773.98-1.37 1.696-1.794 2.143-.423.447-.707.734-.853.86-.136.117-.292.175-.467.175-.175 0-.33-.058-.467-.175-.146-.126-.43-.413-.853-.86S3.66 5.71 2.886 4.73C2.114 3.746 1.47 2.8.954 1.884z" fill="#353535"/></g></svg>