<?xml version="1.0" encoding="utf-8"?>
<!-- Generator: Adobe Illustrator 18.1.1, SVG Export Plug-In . SVG Version: 6.00 Build 0)  -->
<!DOCTYPE svg PUBLIC "-//W3C//DTD SVG 1.1//EN" "http://www.w3.org/Graphics/SVG/1.1/DTD/svg11.dtd">
<svg version="1.1" id="Layer_1" xmlns="http://www.w3.org/2000/svg" xmlns:xlink="http://www.w3.org/1999/xlink" x="0px" y="0px"
	 viewBox="0 0 105.2 54.5" enable-background="new 0 0 105.2 54.5" xml:space="preserve">
<g>
	<path fill="#1D1D1B" d="M52.3,34H34.6c-0.3,0-0.5-0.2-0.5-0.5v-0.1c0-0.3,0.2-0.5,0.5-0.5h17.7c0.3,0,0.5,0.2,0.5,0.5v0.1
		C52.8,33.8,52.5,34,52.3,34z"/>
	<path fill="#1D1D1B" d="M52.3,39.4H34.6c-0.3,0-0.5-0.2-0.5-0.5v-0.1c0-0.3,0.2-0.5,0.5-0.5h17.7c0.3,0,0.5,0.2,0.5,0.5v0.1
		C52.8,39.2,52.5,39.4,52.3,39.4z"/>
	<path fill="#1D1D1B" d="M53.7,37.7H33.1c-0.3,0-0.5-0.2-0.5-0.5v-2.4c0-0.3,0.2-0.5,0.5-0.5h20.6c0.3,0,0.5,0.2,0.5,0.5v2.4
		C54.2,37.5,54,37.7,53.7,37.7z"/>
	<g>
		<path fill="#1D1D1B" d="M47.6,28L44,26c-0.2-0.1-0.3-0.4-0.2-0.7l3.4-6.2c0.1-0.2,0.4-0.3,0.7-0.2l3.6,2c0.2,0.1,0.3,0.4,0.2,0.7
			l-3.4,6.2C48.2,28.1,47.9,28.2,47.6,28z"/>
		<path fill="#1D1D1B" d="M53.9,20.4l-6.7-3.7c-0.2-0.1-0.3-0.4-0.2-0.7l0.3-0.6c0.1-0.2,0.4-0.3,0.7-0.2l6.7,3.7
			c0.2,0.1,0.3,0.4,0.2,0.7l-0.3,0.6C54.4,20.4,54.1,20.5,53.9,20.4z"/>
		<path fill="#1D1D1B" d="M52.5,21l-5.2-2.8c-0.2-0.1-0.3-0.4-0.2-0.7l0.2-0.4c0.1-0.2,0.4-0.3,0.7-0.2l5.2,2.8
			c0.2,0.1,0.3,0.4,0.2,0.7l-0.2,0.4C53,21.1,52.7,21.2,52.5,21z"/>
		<path fill="#1D1D1B" d="M41.7,26.7l6.7,3.7c0.2,0.1,0.3,0.4,0.2,0.7l-0.3,0.6c-0.1,0.2-0.4,0.3-0.7,0.2l-6.7-3.7
			c-0.2-0.1-0.3-0.4-0.2-0.7l0.3-0.6C41.1,26.7,41.4,26.6,41.7,26.7z"/>
		<path fill="#1D1D1B" d="M43.1,26.1l5.2,2.8c0.2,0.1,0.3,0.4,0.2,0.7L48.2,30c-0.1,0.2-0.4,0.3-0.7,0.2l-5.2-2.8
			c-0.2-0.1-0.3-0.4-0.2-0.7l0.2-0.4C42.5,26,42.8,25.9,43.1,26.1z"/>
		<path fill="#1D1D1B" d="M51.1,27.5L50,26.9c-0.2-0.1-0.3-0.4-0.2-0.7l1.4-2.5c0.1-0.2,0.4-0.3,0.7-0.2l1.1,0.6
			c0.2,0.1,0.3,0.4,0.2,0.7l-1.4,2.5C51.6,27.5,51.3,27.6,51.1,27.5z"/>
		<path fill="#1D1D1B" d="M44.2,23.7c-0.6-0.3-0.7-1.4-0.2-2.3c0.5-0.9,1.4-1.4,2.1-1.1"/>
		<path fill="#1D1D1B" d="M70.3,37.7l-0.2-0.1c-0.2-0.1-0.3-0.4-0.2-0.7l0.9-1.6c0.1-0.2,0.4-0.3,0.7-0.2l0.2,0.1
			c0.2,0.1,0.3,0.4,0.2,0.7L71,37.5C70.9,37.8,70.6,37.9,70.3,37.7z"/>
		<path fill="#1D1D1B" d="M69,36.5l-16.2-8.7c-0.2-0.1-0.3-0.4-0.2-0.7l0.7-1.4c0.1-0.2,0.4-0.3,0.7-0.2l15.9,9.3
			c0.2,0.1,0.3,0.4,0.2,0.7l-0.4,0.8C69.5,36.6,69.2,36.7,69,36.5z"/>
		<path fill="#1D1D1B" d="M72.2,36.4c0.3,0.2,0.5,0.6,0.3,1s-0.6,0.5-1,0.3"/>
	</g>
</g>
</svg>
