<?xml version="1.0" encoding="utf-8"?>
<!-- Generator: Adobe Illustrator 18.1.1, SVG Export Plug-In . SVG Version: 6.00 Build 0)  -->
<!DOCTYPE svg PUBLIC "-//W3C//DTD SVG 1.1//EN" "http://www.w3.org/Graphics/SVG/1.1/DTD/svg11.dtd">
<svg version="1.1" id="Layer_1" xmlns="http://www.w3.org/2000/svg" xmlns:xlink="http://www.w3.org/1999/xlink" x="0px" y="0px"
	 viewBox="0 0 100 100" enable-background="new 0 0 100 100" xml:space="preserve">
<g>
	<circle fill="none" stroke="#000000" stroke-width="1.1217" stroke-miterlimit="10" cx="52.5" cy="44.5" r="12.9"/>
	<path fill="none" stroke="#000000" stroke-width="1.1217" stroke-miterlimit="10" d="M47.5,32.6c0,0,14.6,4.5,13.5,21.6"/>
	<path fill="none" stroke="#000000" stroke-width="1.1217" stroke-miterlimit="10" d="M43.4,35.3c0,0,0,16.1,14.2,21"/>
	<line fill="none" stroke="#000000" stroke-width="1.1217" stroke-miterlimit="10" x1="39.6" y1="45.2" x2="58.7" y2="33.2"/>
	<line fill="none" stroke="#000000" stroke-width="1.1217" stroke-miterlimit="10" x1="63.3" y1="37.5" x2="41.7" y2="51.5"/>
	<line fill="none" stroke="#000000" stroke-width="1.1217" stroke-miterlimit="10" x1="46.6" y1="56" x2="65.4" y2="44"/>
	<path fill="none" stroke="#000000" stroke-width="2.1225" stroke-linecap="round" stroke-miterlimit="10" d="M63.3,58.8
		c-3,2.5-6.9,4-11.2,4c-9.7,0-17.6-7.9-17.6-17.6c0-6.5,3.6-12.2,8.8-15.2"/>
	<rect x="51" y="63.7" width="3.2" height="2.4"/>
	<path d="M52.6,65.4c0,0-4.5,0.1-7.5,2.3c0,0-1.2,1.4,0.8,2.3h6.7"/>
	<path d="M52.6,65.4c0,0,4.5,0.1,7.5,2.3c0,0,1.2,1.4-0.8,2.3h-6.7"/>
</g>
</svg>
