<?xml version="1.0" encoding="utf-8"?>
<!-- Generator: Adobe Illustrator 18.1.1, SVG Export Plug-In . SVG Version: 6.00 Build 0)  -->
<!DOCTYPE svg PUBLIC "-//W3C//DTD SVG 1.1//EN" "http://www.w3.org/Graphics/SVG/1.1/DTD/svg11.dtd">
<svg version="1.1" id="Layer_1" xmlns="http://www.w3.org/2000/svg" xmlns:xlink="http://www.w3.org/1999/xlink" x="0px" y="0px"
	 viewBox="0 0 100 100" enable-background="new 0 0 100 100" xml:space="preserve">
<g>
	<line fill="none" stroke="#1D1D1B" stroke-width="0.3799" stroke-miterlimit="10" x1="1729.9" y1="52.5" x2="1734.4" y2="38.9"/>
	<line fill="none" stroke="#1D1D1B" stroke-width="0.3799" stroke-miterlimit="10" x1="1735.3" y1="38.9" x2="1735.3" y2="52.5"/>
	<line fill="none" stroke="#1D1D1B" stroke-width="0.3799" stroke-miterlimit="10" x1="1740.1" y1="52.5" x2="1735.8" y2="38.1"/>
	<line fill="none" stroke="#1D1D1B" stroke-width="0.3799" stroke-miterlimit="10" x1="1709.6" y1="38.1" x2="1705.1" y2="52.6"/>
	<line fill="none" stroke="#1D1D1B" stroke-width="0.3799" stroke-miterlimit="10" x1="1710.2" y1="52.6" x2="1710.2" y2="38.7"/>
	<line fill="none" stroke="#1D1D1B" stroke-width="0.3799" stroke-miterlimit="10" x1="1710.9" y1="38.7" x2="1715.4" y2="52.6"/>
	<path fill="#1D1D1B" d="M1715.9,53.3c0,1.8-2.6,3.2-5.7,3.2s-5.7-1.4-5.7-3.2H1715.9z"/>
	<path fill="#1D1D1B" d="M1741,53.2c0,1.8-2.6,3.2-5.7,3.2s-5.7-1.4-5.7-3.2H1741z"/>
	<circle fill="#1D1D1B" cx="1722.4" cy="37.4" r="2.3"/>
	<circle fill="#1D1D1B" cx="1722.3" cy="59.8" r="2.3"/>
	<path fill="#1D1D1B" d="M1714.7,69.4v-3.1c0,0,4.5-2.1,5.5-4.6c0,0,0.8,1.2,2.1,1.2c1.4,0,2.3-1.2,2.3-1.2s1,2.3,5.2,4.6v3.2
		H1714.7z"/>
	<path fill="#1D1D1B" d="M1722.3,40.3c0.9,0,1.6-0.5,1.6-0.5v17.9c0,0-0.7-0.4-1.6-0.4c-1,0-1.6,0.4-1.6,0.4V39.7
		C1720.7,39.7,1721.4,40.3,1722.3,40.3z"/>
	<circle fill="#1D1D1B" cx="1735" cy="37.1" r="1.8"/>
	<circle fill="#1D1D1B" cx="1709.9" cy="38" r="1.8"/>
	<path fill="#1D1D1B" d="M1724.5,35.6c0,0,0.8-1.2,3.3,1s5.8,1.8,5.8,1.8l1.1-0.4l1.5,0.5c0,0-1.1,2-5.1,1.7c0,0-0.4,0.1-6.1-1.7
		C1725.6,36.4,1724.5,35.6,1724.5,35.6z"/>
	<path fill="#1D1D1B" d="M1720.3,35.8c0,0-0.9-1.1-3.2,1.2c-2.3,2.3-5.7,2.1-5.7,2.1l-1.2-0.4l-1.5,0.5c0,0,1.2,2,5.1,1.5
		c0,0,0.4,0.1,6-2C1719.2,36.6,1720.3,35.8,1720.3,35.8z"/>
	<path fill="#1D1D1B" d="M1720.4,35.2c0,0-0.9-1.8,1.9-4.5c2.3,1.8,2.2,3.3,2.2,3.3s-0.8,0.2-1.2,0.9
		C1722,34,1720.4,35.2,1720.4,35.2z"/>
</g>
<g>
	<line fill="none" stroke="#1D1D1B" stroke-width="0.3799" stroke-miterlimit="10" x1="57.1" y1="52.5" x2="61.6" y2="38.9"/>
	<line fill="none" stroke="#1D1D1B" stroke-width="0.3799" stroke-miterlimit="10" x1="62.5" y1="38.9" x2="62.5" y2="52.5"/>
	<line fill="none" stroke="#1D1D1B" stroke-width="0.3799" stroke-miterlimit="10" x1="67.3" y1="52.5" x2="63" y2="38.1"/>
	<line fill="none" stroke="#1D1D1B" stroke-width="0.3799" stroke-miterlimit="10" x1="36.8" y1="38.1" x2="32.3" y2="52.6"/>
	<line fill="none" stroke="#1D1D1B" stroke-width="0.3799" stroke-miterlimit="10" x1="37.5" y1="52.6" x2="37.5" y2="38.7"/>
	<line fill="none" stroke="#1D1D1B" stroke-width="0.3799" stroke-miterlimit="10" x1="38.1" y1="38.7" x2="42.6" y2="52.6"/>
	<path fill="#1D1D1B" d="M43.2,53.3c0,1.8-2.6,3.2-5.7,3.2c-3.1,0-5.7-1.4-5.7-3.2H43.2z"/>
	<path fill="#1D1D1B" d="M68.2,53.2c0,1.8-2.6,3.2-5.7,3.2s-5.7-1.4-5.7-3.2H68.2z"/>
	<circle fill="#1D1D1B" cx="49.6" cy="37.4" r="2.3"/>
	<circle fill="#1D1D1B" cx="49.5" cy="59.8" r="2.3"/>
	<path fill="#1D1D1B" d="M41.9,69.4v-3.1c0,0,4.5-2.1,5.5-4.6c0,0,0.8,1.2,2.1,1.2c1.4,0,2.3-1.2,2.3-1.2s1,2.3,5.2,4.6v3.2H41.9z"
		/>
	<path fill="#1D1D1B" d="M49.5,40.3c0.9,0,1.6-0.5,1.6-0.5v17.9c0,0-0.7-0.4-1.6-0.4s-1.6,0.4-1.6,0.4V39.7
		C47.9,39.7,48.6,40.3,49.5,40.3z"/>
	<circle fill="#1D1D1B" cx="62.3" cy="37.1" r="1.8"/>
	<circle fill="#1D1D1B" cx="37.2" cy="38" r="1.8"/>
	<path fill="#1D1D1B" d="M51.8,35.6c0,0,0.8-1.2,3.3,1s5.8,1.8,5.8,1.8L62,38l1.5,0.5c0,0-1.1,2-5.1,1.7c0,0-0.4,0.1-6.1-1.7
		C52.9,36.4,51.8,35.6,51.8,35.6z"/>
	<path fill="#1D1D1B" d="M47.5,35.8c0,0-0.9-1.1-3.2,1.2c-2.3,2.3-5.7,2.1-5.7,2.1l-1.2-0.4l-1.5,0.5c0,0,1.2,2,5.1,1.5
		c0,0,0.4,0.1,6-2C46.4,36.6,47.5,35.8,47.5,35.8z"/>
	<path fill="#1D1D1B" d="M47.7,35.2c0,0-0.9-1.8,1.9-4.5c2.3,1.8,2.2,3.3,2.2,3.3s-0.8,0.2-1.2,0.9C49.2,34,47.7,35.2,47.7,35.2z"/>
</g>
</svg>
