<?xml version="1.0" encoding="utf-8"?>
<!-- Generator: Adobe Illustrator 18.1.1, SVG Export Plug-In . SVG Version: 6.00 Build 0)  -->
<!DOCTYPE svg PUBLIC "-//W3C//DTD SVG 1.1//EN" "http://www.w3.org/Graphics/SVG/1.1/DTD/svg11.dtd">
<svg version="1.1" id="Layer_1" xmlns="http://www.w3.org/2000/svg" xmlns:xlink="http://www.w3.org/1999/xlink" x="0px" y="0px"
	 viewBox="0 0 100 100" enable-background="new 0 0 100 100" xml:space="preserve">
<g>
	<g>
		<path d="M53.9,42.2h-8.1c-0.1,0.6-0.3,1.3-0.4,1.7h9.5C54.5,43.4,54.1,42.8,53.9,42.2z"/>
		<path d="M53.7,41.2c0-2.3,5.4-3.4,5.4-3.4c2.3,0.1,1.2-0.9,1.2-0.9c-2.3-4-8.9-3.1-8.9-3.1s-3.1-3.4-6.1-2.7c-3,0.7-1.9,5-1.5,6
			c0.4,1,2.8,3.8,2.4,4c0,0,0,0,0,0L53.7,41.2C53.7,41.2,53.7,41.2,53.7,41.2z"/>
		<path d="M65.5,61.6c-3.1-2.4-3.9-5.6-3.9-5.6c0-5.2-4.4-9.8-4.4-9.8s-0.6-0.5-1.3-1.2H44.3c-1.7,1-5.1,3.5-6,8.8
			c-1.3,7.2-4.5,8.8-4.5,8.8c-4.3,6.6,3.6,6.4,3.6,6.4h27.2C64.6,68.9,70.5,66.8,65.5,61.6z"/>
	</g>
	<text transform="matrix(1 0 0 1 45.4398 62.4497)" fill="#FFFFFF" font-family="'Adelle-Bold'" font-size="16.7477">£</text>
</g>
</svg>
