<?xml version="1.0" encoding="utf-8"?>
<!-- Generator: Adobe Illustrator 18.1.1, SVG Export Plug-In . SVG Version: 6.00 Build 0)  -->
<!DOCTYPE svg PUBLIC "-//W3C//DTD SVG 1.1//EN" "http://www.w3.org/Graphics/SVG/1.1/DTD/svg11.dtd">
<svg version="1.1" id="Layer_1" xmlns="http://www.w3.org/2000/svg" xmlns:xlink="http://www.w3.org/1999/xlink" x="0px" y="0px"
	 viewBox="0 0 100 100" enable-background="new 0 0 100 100" xml:space="preserve">
<g>
	<rect x="30" y="38.9" width="2.2" height="23.6"/>
	<rect x="67.8" y="38.9" width="2.2" height="23.6"/>
	<rect x="33.5" y="37.6" width="2.2" height="20.8"/>
	<rect x="64.5" y="37.6" width="2.2" height="20.8"/>
	<path d="M36.9,36c0,0,7.8-0.5,12.5,4.1v19.7c0,0-4.8-4-12.5-4V36z"/>
	<path d="M50.9,40.2c0,0,3.1-4.1,12-4.1v19.9c0,0-7.5,0.4-12,4V40.2z"/>
	<path d="M50.1,61.2h-0.8c-3.5-4.8-13.6-4-13.6-4v1.2c0,0,9.9-0.3,13.4,4h1V61.2z"/>
	<path d="M50.1,61.2h0.8c3.5-4.8,13.6-4,13.6-4v1.2c0,0-9.9-0.3-13.4,4h-1V61.2z"/>
	<path d="M50.1,64h-1.6c0,0,0-1.5-16.3-1.5v-2.6c0,0,12.8-0.7,16.9,2.6h1V64z"/>
	<path d="M50.1,64h1.6c0,0,0-1.5,16.3-1.5v-2.6c0,0-12.8-0.7-16.9,2.6h-1V64z"/>
</g>
</svg>
