<?xml version="1.0" encoding="utf-8"?>
<!-- Generator: Adobe Illustrator 18.1.1, SVG Export Plug-In . SVG Version: 6.00 Build 0)  -->
<!DOCTYPE svg PUBLIC "-//W3C//DTD SVG 1.1//EN" "http://www.w3.org/Graphics/SVG/1.1/DTD/svg11.dtd">
<svg version="1.1" id="Layer_1" xmlns="http://www.w3.org/2000/svg" xmlns:xlink="http://www.w3.org/1999/xlink" x="0px" y="0px"
	 viewBox="0 0 100 100" enable-background="new 0 0 100 100" xml:space="preserve">
<g>
	<polygon points="50,29.9 50.8,31.6 52.7,31.8 51.3,33.1 51.7,34.9 50,34.1 48.4,34.9 48.7,33.1 47.4,31.8 49.2,31.6 	"/>
	<polygon points="59.1,33.3 59.9,34.9 61.7,35.2 60.4,36.5 60.7,38.3 59.1,37.4 57.4,38.3 57.7,36.5 56.4,35.2 58.2,34.9 	"/>
	<polygon points="65.3,39.8 66.1,41.5 67.9,41.7 66.6,43 66.9,44.8 65.3,44 63.6,44.8 63.9,43 62.6,41.7 64.4,41.5 	"/>
	<polygon points="67.4,47.4 68.2,49 70,49.3 68.7,50.6 69,52.4 67.4,51.5 65.7,52.4 66,50.6 64.7,49.3 66.6,49 	"/>
	<polygon points="65.3,55 66.1,56.6 67.9,56.9 66.6,58.2 66.9,60 65.3,59.1 63.6,60 63.9,58.2 62.6,56.9 64.4,56.6 	"/>
	<polygon points="59.1,61.7 59.9,63.4 61.7,63.7 60.4,64.9 60.7,66.8 59.1,65.9 57.4,66.8 57.7,64.9 56.4,63.7 58.2,63.4 	"/>
	<polygon points="50,65.1 50.8,66.7 52.7,67 51.3,68.3 51.7,70.1 50,69.2 48.4,70.1 48.7,68.3 47.4,67 49.2,66.7 	"/>
	<polygon points="40.9,61.7 41.7,63.4 43.5,63.7 42.2,64.9 42.5,66.8 40.9,65.9 39.2,66.8 39.6,64.9 38.2,63.7 40.1,63.4 	"/>
	<polygon points="34.7,55 35.6,56.6 37.4,56.9 36.1,58.2 36.4,60 34.7,59.1 33.1,60 33.4,58.2 32.1,56.9 33.9,56.6 	"/>
	<polygon points="32.6,47.4 33.4,49 35.3,49.3 33.9,50.6 34.3,52.4 32.6,51.5 31,52.4 31.3,50.6 30,49.3 31.8,49 	"/>
	<polygon points="34.7,39.8 35.6,41.5 37.4,41.7 36.1,43 36.4,44.8 34.7,44 33.1,44.8 33.4,43 32.1,41.7 33.9,41.5 	"/>
	<polygon points="40.9,33 41.7,34.7 43.5,34.9 42.2,36.2 42.5,38 40.9,37.2 39.2,38 39.6,36.2 38.2,34.9 40.1,34.7 	"/>
</g>
</svg>
