<?xml version="1.0" encoding="utf-8"?>
<!-- Generator: Adobe Illustrator 18.1.1, SVG Export Plug-In . SVG Version: 6.00 Build 0)  -->
<!DOCTYPE svg PUBLIC "-//W3C//DTD SVG 1.1//EN" "http://www.w3.org/Graphics/SVG/1.1/DTD/svg11.dtd">
<svg version="1.1" id="Layer_1" xmlns="http://www.w3.org/2000/svg" xmlns:xlink="http://www.w3.org/1999/xlink" x="0px" y="0px"
	 viewBox="0 0 100 100" enable-background="new 0 0 100 100" xml:space="preserve">
<g>
	<path d="M58.3,31.7H41.4c-0.7,0-1.2,0.6-1.2,1.2v5.9c0,0.7,0.6,0.4,1.2,0.4H44v-4h11.8v4h2.5c0.7,0,1.2,0.3,1.2-0.4v-5.9
		C59.6,32.2,59,31.7,58.3,31.7z"/>
	<path d="M68.4,40.5L66.9,39H33.1l-1.7,1.7L30,42.3v22.4l1.4,1.7l1.7,1.8h33.8l1.7-1.8l1.4-1.8V42.3L68.4,40.5z M50,64.2
		c-5.8,0-10.5-4.7-10.5-10.5S44.2,43.2,50,43.2s10.5,4.7,10.5,10.5S55.8,64.2,50,64.2z"/>
	<rect x="47.6" y="46.2" width="4.7" height="15.3"/>
	<rect x="42.3" y="51.5" width="15.3" height="4.7"/>
</g>
</svg>
